<?xml version="1.0" encoding="UTF-8" standalone="no"?>
<!-- Created with Inkscape (http://www.inkscape.org/) -->

<svg
   width="600"
   height="600"
   viewBox="0 0 158.75 158.75"
   version="1.1"
   id="svg1"
   inkscape:version="1.3.2 (091e20ef0f, 2023-11-25)"
   sodipodi:docname="choose-path.svg"
   xmlns:inkscape="http://www.inkscape.org/namespaces/inkscape"
   xmlns:sodipodi="http://sodipodi.sourceforge.net/DTD/sodipodi-0.dtd"
   xmlns="http://www.w3.org/2000/svg"
   xmlns:svg="http://www.w3.org/2000/svg">
  <sodipodi:namedview
     id="namedview1"
     pagecolor="#ffffff"
     bordercolor="#000000"
     borderopacity="0.25"
     inkscape:showpageshadow="2"
     inkscape:pageopacity="0.0"
     inkscape:pagecheckerboard="0"
     inkscape:deskcolor="#d1d1d1"
     inkscape:document-units="mm"
     inkscape:zoom="0.71713664"
     inkscape:cx="397.4138"
     inkscape:cy="561.25984"
     inkscape:window-width="1920"
     inkscape:window-height="1011"
     inkscape:window-x="0"
     inkscape:window-y="0"
     inkscape:window-maximized="1"
     inkscape:current-layer="layer1" />
  <defs
     id="defs1" />
  <g
     inkscape:label="Layer 1"
     inkscape:groupmode="layer"
     id="layer1">
    <path
       style="fill:#b3b3b3;stroke-width:0.21529"
       d="m 11.863856,146.60235 c 0,0 57.608605,-17.34107 48.317267,-24.05588 C 50.889784,115.83166 12.546982,75.356411 12.546982,75.356411 l 6.403197,-0.600554 21.927674,9.004928 c 0,0 19.855244,6.72718 26.817622,15.932494 6.962378,9.205311 31.14551,6.566991 31.14551,6.566991 l 29.137945,-9.892397 30.3442,-20.329634 c 0,0 5.34536,-8.579627 0.33292,2.521711 -5.01246,11.10134 -15.56771,15.557884 -23.06765,24.26033 -7.49995,8.70244 28.83944,53.24147 41.63591,58.6299 136.99054,57.68488 -14.92638,-3.51745 -14.92638,-3.51745 l -2.16322,0.39329 -159.0322013,-0.16604 z"
       id="path1"
       sodipodi:nodetypes="cscccscccssscccc" />
    <rect
       style="fill:#00bbff;stroke-width:0.285775;fill-opacity:1"
       id="rect1"
       width="162.32098"
       height="82.75013"
       x="-2.9630823"
       y="-6.4651685"
       ry="0" />
  </g>
</svg>
